<svg viewBox="0 0 100 100" xmlns="http://www.w3.org/2000/svg" fill="#000000">
<path d="M5 60C7.76 60 10 62.24 10 65V88C10 89.1 10.9 90 12 90H35C37.76 90 40 92.24 40 95C40 97.76 37.76 100 35 100H5C2.24 100 0 97.76 0 95V65C0 62.24 2.24 60 5 60ZM95 60C97.76 60 100 62.24 100 65V95C100 97.76 97.76 100 95 100H65C62.24 100 60 97.76 60 95C60 92.24 62.24 90 65 90H88C89.1 90 90 89.1 90 88V65C90 62.24 92.24 60 95 60ZM35 0C37.76 0 40 2.24 40 5C40 7.76 37.76 10 35 10H12C10.9 10 10 10.9 10 12V35C10 37.76 7.76 40 5 40C2.24 40 0 37.76 0 35V5C0 2.24 2.24 0 5 0H35ZM95 0C97.76 0 100 2.24 100 5V35C100 37.76 97.76 40 95 40C92.24 40 90 37.76 90 35V12C90 10.9 89.1 10 88 10H65C62.24 10 60 7.76 60 5C60 2.24 62.24 0 65 0H95Z"/>
</svg>