<svg width="1000" height="1000" viewBox="0 0 1000 1000" fill="none" xmlns="http://www.w3.org/2000/svg">
<g clip-path="url(#clip0_63_509)">
<path d="M433.4 928.8H257L80.6 750.1V571.5L433.4 928.8Z" fill="url(#paint0_linear_63_509)"/>
<path d="M596.9 443.6C601.4 449.1 608.7 455.6 620.1 459.4C637.1 465.2 657.3 470.4 678.9 462.8L913.2 700.1V878.8L534.8 495.5C537.3 494.9 539.8 494.1 542.6 493.2C551.6 490.3 558.8 486.8 565.2 482.1C571.7 477.5 577.2 471.8 583.2 464.6C587.9 459 592.2 451 595.3 444.8C595.7 444.1 596 443.5 596.3 442.8C596.5 443.1 596.7 443.3 596.9 443.6Z" fill="url(#paint1_linear_63_509)"/>
<path d="M786.2 928.8H609.8L455.1 772.1L568.9 708.7L786.2 928.8Z" fill="url(#paint2_linear_63_509)"/>
<path d="M84.2 388.8C105.1 401.9 135.9 404.4 173.2 393.2C173.7 393.9 174.3 394.7 174.9 395.7C177.5 399.3 181.4 404.1 186.5 408.8C196.6 418.3 211.9 428.2 231.8 427.6C250.7 427.2 263.1 422.7 270.9 418C271.8 417.5 272.7 416.9 273.5 416.4C275.1 424.8 278.7 434.4 284 443C289.1 451.2 294.3 457.2 300.6 462.1C306.8 467 313.8 470.6 322.2 474.4C330.3 478 337.6 480.5 345 481.9L381.9 519.3C381.6 520.1 381.4 520.9 381.2 521.7C381.2 521.9 381.1 522 381.1 522.1C381 522.3 381 522.6 381 522.8C380.9 522.9 380.9 523 380.9 523C380.9 523.3 380.8 523.5 380.8 523.7C380.8 523.8 380.8 523.9 380.7 524C380.7 524.2 380.7 524.4 380.7 524.7C380.6 524.8 380.6 525 380.6 525.2C380.6 525.3 380.6 525.5 380.6 525.6C380.6 525.8 380.5 526 380.5 526.2C380.5 526.7 380.5 527.2 380.5 527.7V696.5L80.8 393C81 391.7 81.3 390.4 81.7 389.1C81.8 388.6 82 388 82.2 387.5C82.8 388 83.5 388.4 84.2 388.8Z" fill="url(#paint3_linear_63_509)"/>
<path d="M894.1 372C902.9 374.1 909.9 380.9 912.3 389.7C912.9 391.7 913.2 393.8 913.2 395.9C913.2 396.1 913.2 396.2 913.2 396.4V521.4L817.1 424.1C818.1 424.2 819.1 424.2 820.1 424.3C836.7 424.8 847.3 425.9 862.4 417.4C868.9 413.7 874.6 410.3 879.3 405.5C884 400.5 887.5 394.3 890.4 385.4C891.9 380.7 893.2 376.4 894.1 372Z" fill="url(#paint4_linear_63_509)"/>
<path d="M257 928.8H105.3C92.3 928.8 81.6 918.6 80.7 905.6C80.6 905 80.6 904.4 80.6 903.8V750.1L257 928.8Z" fill="url(#paint5_linear_63_509)"/>
<path d="M380.5 696.5V772.5C380.5 773.3 380.5 774 380.6 774.8C382.1 792.4 401.8 801.8 416.7 793.5L455.1 772.1L609.8 928.8H433.4L80.6 571.5V396.4C80.6 396.3 80.6 396.3 80.6 396.2C80.6 395.2 80.7 394.1 80.8 393.1V393L380.5 696.5Z" fill="url(#paint6_linear_63_509)"/>
<path d="M431.5 444.1C434.5 448.3 438.4 453.7 441.7 457.8C449.4 467.3 454 475.1 465.6 482.9C478.4 491.6 487.6 494.3 502.4 496.3C514.9 498.1 523.8 498.2 534.8 495.5L913.2 878.8V903.8C913.2 917.6 902.2 928.8 888.5 928.8H786.2L568.9 708.7L636.2 671.1C645.5 665.9 649.6 656.2 648.4 647C647.5 639.9 643.5 633.1 636.2 629.1L416.7 506.7C403.6 499.4 386.9 505.7 381.9 519.3L345 481.9C346.7 482.3 348.4 482.5 350.1 482.7C359.2 483.8 368.5 482.9 379.1 480.3C390.6 477.6 401.8 469.7 410.9 461.8C419.1 454.7 426 447.2 430.2 442.3C430.6 442.8 431 443.5 431.5 444.1Z" fill="url(#paint7_linear_63_509)"/>
<path d="M793.7 416.5C798.3 420.2 805.7 423.4 817.1 424.1L913.2 521.4V700.1L678.9 462.8C683.8 461.1 688.8 458.7 693.8 455.6C707 447.3 715.8 437.8 721.2 430.3C723.6 427 725.4 424 726.6 421.8C728.4 422.4 730.7 423.1 733.3 423.8C740.2 425.6 749.7 427.1 760.1 426.1C775.8 424.6 786.6 421.7 793.7 416.5Z" fill="url(#paint8_linear_63_509)"/>
<path fill-rule="evenodd" clip-rule="evenodd" d="M381.9 519.4C386.9 505.7 403.6 499.4 416.7 506.7L636.2 629.1C652.8 638.3 652.8 661.9 636.2 671.1L416.7 793.5C401.1 802.2 380.5 791.6 380.5 772.5V527.7C380.5 525.1 380.9 522.6 381.6 520.3L381.9 519.4ZM411.6 516.1C404 511.9 394.5 515.8 391.9 523C391.4 524.4 391.1 525.9 391.1 527.7V772.5C391.1 782.6 402.3 789.3 411.6 784.1L631.1 661.7C640.3 656.6 640.3 643.6 631.1 638.5L411.6 516.1Z" fill="black"/>
<path fill-rule="evenodd" clip-rule="evenodd" d="M64.1 .4C69.2 -.7 74.2 .5 78.3 4.4C82.1 8 84.8 13.7 86.8 21C94.7 49 92.7 45.1 98.2 59.7C108.9 88.1 117.7 103.1 135.5 127.8C137.6 130.7 139.9 133.7 142.4 136.7C156.4 127 170.2 121.8 185.3 120.1C200.2 118.4 215.8 120.2 233.2 124.4C233.1 123.9 233 123.3 232.9 122.8C231.9 116.5 231.1 107.8 232.3 98.4C233.6 89 236.9 78.9 244.2 70C251.6 61.1 262.7 53.8 278.7 49.7C315.1 40.3 348.1 49.4 373.3 62.3C373.6 57.9 374.3 52.2 375.9 46.2C379.6 32.6 388 16.4 407.2 8.6C415.6 5.2 426.6 2.2 440.6 2.9C454.6 3.6 471.2 8.2 491 19.4C510.2 30.3 523.1 44.5 531.4 56.5C533.6 53.7 536.6 50.2 540.4 46.7C549.4 38.4 562.9 29.6 580.6 28.5C615.3 26.3 633.1 46 642.4 54.5C645.2 57.2 648.1 61.1 650.7 65.1C653.3 69.2 655.9 73.7 658.1 78C660 81.5 661.7 84.8 663 87.5C675.6 77.3 687.6 70.7 701.7 68.6C717.6 66.2 735.3 69.6 758.4 78.3C783.2 87.8 796.5 110.5 803.4 129.9C807 139.7 809 148.9 810.1 155.6C810.6 158.6 811 161 811.2 162.9C812.1 163.2 813 163.5 814.1 163.8C818.2 165.2 823.9 167.5 830.1 171.1C832.2 172.4 834.4 173.8 836.6 175.4L836.5 175.3C858.1 158.6 875.6 135.9 889.4 113.7C905.3 88.1 916 64 922.8 50.9C930.2 36.6 942.3 29.5 954.7 29.9C966.9 30.2 978.3 38 984.1 51.2C989.5 63.5 992.9 82.4 995.2 100.3C997.5 118.3 998.8 136 999.6 146.2C1001.3 167.4 997.9 209.8 987.6 244.7C980.5 268.8 970.6 286.6 958.7 304.6C973.8 312.2 984 327.9 984 346.1V953.5C984 979.2 963.4 1000 938.1 1000H56.1C30.7 1000 10.2 979.2 10.2 953.5V346.1C10.2 323 26.8 303.9 48.5 300.3C47.4 298.7 46.3 297.1 45.2 295.4C37.6 284.1 28.1 269 20.6 254.1C13.5 240 4.2 211.5 .6 166.7C-1.5 140.1 2.4 96 4.9 81.2C5.5 77.8 8 67.8 12.8 56.2C17.7 44.6 25.1 30.8 35.7 20.3C40.7 15.4 45.6 10.9 50.1 7.5C54.6 4.1 59.4 1.3 64.1 .4ZM878.2 310.4C882.8 315 884.4 317.1 886.7 321.2C889.3 325.8 890.9 330.8 893 337.8C895.5 345.9 896.2 353.5 895.6 361.4L897.1 361.7C912.5 365.6 923.8 379.7 923.8 396.4V903.8C923.8 923.5 908 939.5 888.5 939.5H105.3C85.8 939.5 70 923.5 70 903.8V396.4C70 394.8 70.1 393.2 70.3 391.6C70.8 387.7 72 384 73.7 380.5C73.7 380.6 73.8 380.6 73.8 380.7C59.2 366.3 53.1 345.2 56.7 320.9C57.1 318.4 57.5 316 58 313.7L55.6 310.4C36.3 310.6 20.8 326.5 20.8 346.1V953.5C20.8 972.7 35.6 988.3 54.2 989.2L56.1 989.3H938.1C957.6 989.3 973.4 973.3 973.4 953.5V346.1C973.4 326.4 957.6 310.4 938.1 310.4H878.2ZM894.1 372C893.2 376.4 891.9 380.7 890.4 385.4C887.5 394.3 884 400.5 879.3 405.5C874.6 410.3 868.9 413.7 862.4 417.4C847.3 425.9 836.7 424.8 820.1 424.3C807 423.9 798.7 420.5 793.7 416.5C786.6 421.7 775.8 424.6 760.1 426.1C749.7 427.1 740.2 425.6 733.3 423.8C730.7 423.1 728.4 422.4 726.6 421.8C725.4 424 723.6 427 721.2 430.3C715.8 437.8 707 447.3 693.8 455.6C666.5 472.7 640.9 466.5 620.1 459.4C608.7 455.6 601.4 449.1 596.9 443.6C596.7 443.3 596.5 443.1 596.3 442.8C596 443.5 595.7 444.1 595.3 444.8C592.2 451 587.9 459 583.2 464.6C577.2 471.8 571.7 477.5 565.2 482.1C558.8 486.8 551.6 490.3 542.6 493.2C527.6 498.2 517.7 498.5 502.4 496.3C487.6 494.3 478.4 491.6 465.6 482.9C454 475.1 449.4 467.3 441.7 457.8C438.4 453.7 434.5 448.3 431.5 444.1C431 443.5 430.6 442.8 430.2 442.3C426 447.2 419.1 454.7 410.9 461.8C401.8 469.7 390.6 477.6 379.1 480.3C368.5 482.9 359.2 483.8 350.1 482.7C340.9 481.7 332.1 478.8 322.2 474.4C313.8 470.6 306.8 467 300.6 462.1C294.3 457.2 289.1 451.2 284 443C278.7 434.4 275.1 424.8 273.5 416.4C272.7 416.9 271.8 417.5 270.9 418C263.1 422.7 250.7 427.2 231.8 427.6C211.9 428.2 196.6 418.3 186.5 408.8C181.4 404.1 177.5 399.3 174.9 395.7C174.3 394.7 173.7 393.9 173.2 393.2C135.9 404.4 105.1 401.9 84.2 388.8C83.5 388.4 82.8 388 82.2 387.5C81.5 389.3 81.1 391.1 80.8 393.1C80.7 394.1 80.6 395.3 80.6 396.4V903.8C80.6 917.6 91.6 928.8 105.3 928.8H888.5C902.2 928.8 913.2 917.6 913.2 903.8V396.4C913.2 384.5 905 374.6 894.1 372ZM440 13.6C428 13 418.5 15.6 411.1 18.6C396.2 24.6 389.3 37.2 386.1 49C384.6 54.9 384 60.4 383.8 64.4C383.7 66.4 383.6 68.1 383.7 69.2C383.7 69.5 383.7 69.8 383.7 70C383.7 70 383.7 70 383.7 70.1C393.5 78.3 398.3 87.2 401.3 99.1C393.7 90.4 384.5 80.9 372.7 74.1C348.4 60.8 316.4 51 281.3 60.1C267.1 63.7 258.1 69.9 252.4 76.9C246.6 83.9 243.9 92 242.8 99.9C241.7 107.8 242.4 115.3 243.4 121C243.8 123.8 244.4 126.1 244.8 127.7C245 128.5 245.2 129.1 245.3 129.4L246.3 132.4C251.2 136.6 255.3 142.5 259.6 152C246.1 141 238.4 137.1 232.9 135.3C215.3 131 200.3 129.2 186.5 130.8C171.2 132.5 157.1 138.4 142.1 150.1C123.9 164.4 114.3 179.7 111.9 194.8C109.6 209.4 113.9 224.8 125.4 240.4C138.8 237.2 148.3 239 159.2 245.7C139.6 246.2 134.3 246.6 119.8 252.5C110 257.1 99.9 262 90.8 270.6C80.4 280.6 71.2 295.9 67.2 322.5C63.3 348.5 72 368.6 89.7 379.7C107 390.5 134.1 393.5 169.2 383.2C164.1 362.8 168.7 326.9 187.4 308.6C177.1 342.1 170.4 373.1 186.7 393.5C187.2 394.2 188 395 188.6 395.7C190.1 397.4 191.8 399.2 193.7 401C202.6 409.4 215.4 417.3 231.6 416.9C248.8 416.5 259.4 412.4 265.5 408.8C268.6 406.9 270.6 405.2 271.8 404C272 403.7 272.2 403.5 272.4 403.3C273.1 374.4 281 346.7 301.2 323.9C285.7 351.3 279.2 389.4 286.4 423.4C288 428 290.2 432.8 293 437.3C297.5 444.6 301.9 449.6 307.1 453.6C312.3 457.7 318.4 461 326.5 464.6C335.8 468.7 343.5 471.2 351.3 472.1C358.9 472.9 366.9 472.3 376.7 469.9C385.6 467.7 395.3 461.2 404 453.7C412.7 446.2 419.8 438.2 423.6 433.6C424.5 432.5 425.2 431.7 425.7 431L428 428.1C426.3 402.7 424.6 385.2 438.9 344.9C432.8 379.9 432.3 424.5 445.4 445.2C446.6 446.8 447.9 448.5 449 449.9C449.3 450.3 449.6 450.6 449.8 450.9C458.4 461.5 461.6 467.4 471.4 474C482.6 481.5 490.2 483.8 503.9 485.7C517.9 487.7 526.1 487.4 539.3 483C547.6 480.3 553.7 477.3 559.1 473.4C564.5 469.5 569.4 464.5 575.1 457.7C579 453.1 582.9 446.1 585.9 440C587.4 437 588.6 434.3 589.5 432.3C589.9 431.4 590.2 430.6 590.5 430L596.1 416.2L600.8 429.9C601 430.2 601.2 430.8 601.6 431.4C602.3 432.8 603.4 434.7 605.1 436.8C608.5 441 614.2 446.1 623.4 449.3C643.7 456.2 665.2 460.9 688.2 446.5C700.1 439 707.9 430.5 712.7 423.9C715 420.7 716.7 417.9 717.7 415.9C718.2 415 718.6 414.2 718.8 413.7C718.9 413.5 719.1 413.1 719.1 413.1L720.7 408.9C725.6 393.7 723.3 374.4 715.9 347.3C726.2 359 736.2 386.6 730 411.6C731.5 412.2 733.6 412.8 735.9 413.4C742 415 750.3 416.3 759.1 415.4C774 414 782.2 411.4 786.8 408.3C788.1 407.3 789.2 406.2 790.3 405.2L794.2 400.7C804 387.4 803.3 370.1 801.9 347.4C812.4 371.4 811.1 394 800.9 408.6C803.8 410.7 809.7 413.2 820.4 413.6C837.5 414.1 845.1 414.9 857.3 408C863.8 404.3 868.2 401.6 871.7 398C875 394.5 877.8 389.9 880.4 382.1C885.6 365.9 886.8 353.9 882.9 341C880.7 333.7 879.5 329.9 877.5 326.5C875.6 323.2 872.8 320 867 314.2C861.5 308.8 855.7 305.1 851.3 302.7C849.1 301.5 847.2 300.6 845.9 300.1C845.3 299.8 844.8 299.6 844.4 299.5C844.3 299.4 844.1 299.4 844.1 299.4L836 296.6L842.2 290.2C842.4 290 842.8 289.6 843.2 289.1C844 288.1 845.2 286.6 846.6 284.7C849.5 280.9 853 275.4 856.1 268.6C862.1 255.2 865.8 237.2 857.5 218C848.8 198.2 835.7 186.9 824.8 180.4C819.3 177.2 814.4 175.2 810.8 174C810.6 173.9 810.3 173.8 810 173.8C794.1 170.2 777.8 171.6 764.7 173.1C765 173 765.3 172.9 765.6 172.7C777.7 166.6 788.4 161.1 800.3 161.3C800.1 160.1 799.9 158.8 799.7 157.5C798.6 151.2 796.7 142.6 793.5 133.6C786.9 115.3 775.2 96.2 754.6 88.4C732.2 79.8 716.5 77.2 703.2 79.2C690.1 81.2 678.5 87.9 664.6 100.1L659.3 104.7L656.2 97.9C656.1 97.7 656 97.4 655.8 97C655.4 96.2 654.9 95.1 654.2 93.7C652.9 90.9 651 87.1 648.8 83C646.7 79 644.2 74.7 641.8 71C639.3 67.1 637.1 64.2 635.2 62.5C625.7 53.6 611 37.3 581.3 39.2C566.8 40.1 555.4 47.3 547.5 54.6C543.6 58.2 540.6 61.8 538.6 64.5C537.6 65.8 536.9 66.9 536.4 67.6C536.2 68 536 68.3 535.9 68.5C535.8 68.5 535.8 68.6 535.8 68.6C535.8 68.7 535.7 68.7 535.7 68.7L535.2 69.7C536.6 75.6 537.4 82.7 537 91.4C532.8 79.7 528.7 71.5 523.1 63.2C515.5 52.1 503.6 38.8 485.8 28.7C467.2 18.2 452.2 14.2 440 13.6ZM954.3 40.6C946.6 40.3 937.9 44.7 932.2 55.9C925.8 68.3 914.6 93.4 898.4 119.4C884.7 141.4 867 164.6 845 182.2C853.2 189.7 861.2 199.9 867.2 213.7C874.6 230.7 874 246.7 870.3 260.1C915.2 215.6 930 157.8 947.7 80.8C949.7 141.2 918.6 211.8 910.6 222.2C927.4 218 938.7 209.5 953 198.7C953 198.6 953 198.6 953 198.6C939.5 218.8 934.5 225.5 902.8 235.4C897 245.9 876.9 270.3 859.2 285.1C857.8 287.4 856.4 289.4 855.1 291.1C854.9 291.5 854.6 291.9 854.3 292.2C854.9 292.5 855.6 292.9 856.3 293.2C859.2 294.8 862.7 296.9 866.3 299.6H938.1C941.8 299.6 945.1 300 948.5 300.8C960.8 282.5 970.5 265.3 977.5 241.6C987.4 208 990.6 166.9 989 147.1C988.2 136.7 987 119.4 984.7 101.7C982.4 83.8 979.1 66.3 974.4 55.6C970.1 45.8 962.1 40.8 954.3 40.6ZM71 12.2C69.6 10.8 68.2 10.5 66.1 10.9C63.7 11.4 60.5 13 56.5 16.1C52.5 19.1 48 23.2 43.1 28C33.9 37.1 27.2 49.4 22.6 60.4C18 71.3 15.8 80.5 15.4 83C13 97.3 9.1 140.4 11.2 165.8C14.7 209.6 23.7 236.7 30.1 249.3C37.3 263.6 46.5 278.3 54 289.4C56.6 293.3 59 296.8 61 299.6H61.5C66.8 282.7 74.5 271.5 83.6 262.8C93.6 253.3 104.9 247.7 114.4 243.2C108.2 234 104 224.6 102 215L100.1 212.4C98.3 209.8 96.8 207.6 95.9 206C71.4 199.6 65.1 198.4 48.6 176.2C66.9 188.3 75.1 192.7 89.4 194.4C81.4 184 58.8 115.4 60.8 57.9C75.3 119.1 82.2 160.1 101.3 194.1C101.3 193.8 101.4 193.5 101.4 193.2C104.3 174.7 114.7 158.3 133.9 143.1C131.4 140.1 129.1 137.1 126.9 134.1C108.8 108.8 99.4 93 88.3 63.5C82.6 48.3 84.3 51 76.7 23.9C74.8 17.4 72.8 13.9 71 12.2Z" fill="black"/>
<path d="M440 13.6C428 13 418.5 15.6 411.1 18.6C396.2 24.6 389.3 37.2 386.1 49C384.6 54.9 384 60.4 383.8 64.4C383.7 66.4 383.6 68.1 383.7 69.2C383.7 69.5 383.7 69.8 383.7 70V70.1C393.5 78.3 398.3 87.2 401.3 99.1C393.7 90.4 384.5 80.9 372.7 74.1C348.4 60.8 316.4 51 281.3 60.1C267.1 63.7 258.1 69.9 252.4 76.9C246.6 83.9 243.9 92 242.8 99.9C241.7 107.8 242.4 115.3 243.4 121C243.8 123.8 244.4 126.1 244.8 127.7C245 128.5 245.2 129.1 245.3 129.4L246.3 132.4C251.2 136.6 255.3 142.5 259.6 152C246.1 141 238.4 137.1 232.9 135.3C215.3 131 200.3 129.2 186.5 130.8C171.2 132.5 157.1 138.4 142.1 150.1C123.9 164.4 114.3 179.7 111.9 194.8C109.6 209.4 113.9 224.8 125.4 240.4C138.8 237.2 148.3 239 159.2 245.7C139.6 246.2 134.3 246.6 119.8 252.5C110 257.1 99.9 262 90.8 270.6C80.4 280.6 71.2 295.9 67.2 322.5C63.3 348.5 72 368.6 89.7 379.7C107 390.5 134.1 393.5 169.2 383.2C164.1 362.8 168.7 326.9 187.4 308.6C177.1 342.1 170.4 373.1 186.7 393.5C187.2 394.2 188 395 188.6 395.7C190.1 397.4 191.8 399.2 193.7 401C202.6 409.4 215.4 417.3 231.6 416.9C248.8 416.5 259.4 412.4 265.5 408.8C268.6 406.9 270.6 405.2 271.8 404C272 403.7 272.2 403.5 272.4 403.3C273.1 374.4 281 346.7 301.2 323.9C285.7 351.3 279.2 389.4 286.4 423.4C288 428 290.2 432.8 293 437.3C297.5 444.6 301.9 449.6 307.1 453.6C312.3 457.7 318.4 461 326.5 464.6C335.8 468.7 343.5 471.2 351.3 472.1C358.9 472.9 366.9 472.3 376.7 469.9C385.6 467.7 395.3 461.2 404 453.7C412.7 446.2 419.8 438.2 423.6 433.6C424.5 432.5 425.2 431.7 425.7 431L428 428.1C426.3 402.7 424.6 385.2 438.9 344.9C432.8 379.9 432.3 424.5 445.4 445.2C446.6 446.8 447.9 448.5 449 449.9C449.3 450.3 449.6 450.6 449.8 450.9C458.4 461.5 461.6 467.4 471.4 474C482.6 481.5 490.2 483.8 503.9 485.7C517.9 487.7 526.1 487.4 539.3 483C547.6 480.3 553.7 477.3 559.1 473.4C564.5 469.5 569.4 464.5 575.1 457.7C579 453.1 582.9 446.1 585.9 440C587.4 437 588.6 434.3 589.5 432.3C589.9 431.4 590.2 430.6 590.5 430L596.1 416.2L600.8 429.9C601 430.2 601.2 430.8 601.6 431.4C602.3 432.8 603.4 434.7 605.1 436.8C608.5 441 614.2 446.1 623.4 449.3C643.7 456.2 665.2 460.9 688.2 446.5C700.1 439 707.9 430.5 712.7 423.9C715 420.7 716.7 417.9 717.7 415.9C718.2 415 718.6 414.2 718.8 413.7C718.9 413.5 719.1 413.1 719.1 413.1L720.7 408.9C725.6 393.7 723.3 374.4 715.9 347.3C726.2 359 736.2 386.6 730 411.6C731.5 412.2 733.6 412.8 735.9 413.4C742 415 750.3 416.3 759.1 415.4C774 414 782.2 411.4 786.8 408.3C788.1 407.3 789.2 406.2 790.3 405.2L794.2 400.7C804 387.4 803.3 370.1 801.9 347.4C812.4 371.4 811.1 394 800.9 408.6C803.8 410.7 809.7 413.2 820.4 413.6C837.5 414.1 845.1 414.9 857.3 408C863.8 404.3 868.2 401.6 871.7 398C875 394.5 877.8 389.9 880.4 382.1C885.6 365.9 886.8 353.9 882.9 341C880.7 333.7 879.5 329.9 877.5 326.5C875.6 323.2 872.8 320 867 314.2C861.5 308.8 855.7 305.1 851.3 302.7C849.1 301.5 847.2 300.6 845.9 300.1C845.3 299.8 844.8 299.6 844.4 299.5C844.3 299.4 844.1 299.4 844.1 299.4L836 296.6L842.2 290.2C842.4 290 842.8 289.6 843.2 289.1C844 288.1 845.2 286.6 846.6 284.7C849.5 280.9 853 275.4 856.1 268.6C862.1 255.2 865.8 237.2 857.5 218C848.8 198.2 835.7 186.9 824.8 180.4C819.3 177.2 814.4 175.2 810.8 174C810.6 173.9 810.3 173.8 810 173.8C794.1 170.2 777.8 171.6 764.7 173.1L765.6 172.7C777.7 166.6 788.4 161.1 800.3 161.3C800.1 160.1 799.9 158.8 799.7 157.5C798.6 151.2 796.7 142.6 793.5 133.6C786.9 115.3 775.2 96.2 754.6 88.4C732.2 79.8 716.5 77.2 703.2 79.2C690.1 81.2 678.5 87.9 664.6 100.1L659.3 104.7L656.2 97.9C656.1 97.7 656 97.4 655.8 97C655.4 96.2 654.9 95.1 654.2 93.7C652.9 90.9 651 87.1 648.8 83C646.7 79 644.2 74.7 641.8 71C639.3 67.1 637.1 64.2 635.2 62.5C625.7 53.6 611 37.3 581.3 39.2C566.8 40.1 555.4 47.3 547.5 54.6C543.6 58.2 540.6 61.8 538.6 64.5C537.6 65.8 536.9 66.9 536.4 67.6C536.2 68 536 68.3 535.9 68.5C535.8 68.5 535.8 68.6 535.8 68.6C535.8 68.7 535.7 68.7 535.7 68.7L535.2 69.7C536.6 75.6 537.4 82.7 537 91.4C532.8 79.7 528.7 71.5 523.1 63.2C515.5 52.1 503.6 38.8 485.8 28.7C467.2 18.2 452.2 14.2 440 13.6Z" fill="url(#paint9_linear_63_509)"/>
<path d="M71 12.2C69.6 10.8 68.2 10.5 66.1 10.9C63.7 11.4 60.5 13 56.5 16.1C52.5 19.1 48 23.2 43.1 28C33.9 37.1 27.2 49.4 22.6 60.4C18 71.3 15.8 80.5 15.4 83C13 97.3 9.1 140.4 11.2 165.8C14.7 209.6 23.7 236.7 30.1 249.3C37.3 263.6 46.5 278.3 54 289.4C56.6 293.3 59 296.8 61 299.6H61.5C66.8 282.7 74.5 271.5 83.6 262.8C93.6 253.3 104.9 247.7 114.4 243.2C108.2 234 104 224.6 102 215L100.1 212.4C98.3 209.8 96.8 207.6 95.9 206C71.4 199.6 65.1 198.4 48.6 176.2C66.9 188.3 75.1 192.7 89.4 194.4C81.4 184 58.8 115.4 60.8 57.9C75.3 119.1 82.2 160.1 101.3 194.1C101.3 193.8 101.4 193.5 101.4 193.2C104.3 174.7 114.7 158.3 133.9 143.1C131.4 140.1 129.1 137.1 126.9 134.1C108.8 108.8 99.4 93 88.3 63.5C82.6 48.3 84.3 51 76.7 23.9C74.8 17.4 72.8 13.9 71 12.2Z" fill="url(#paint10_linear_63_509)"/>
<path d="M954.3 40.6C946.6 40.3 937.9 44.7 932.2 55.9C925.8 68.3 914.6 93.4 898.4 119.4C884.7 141.4 867 164.6 845 182.2C853.2 189.7 861.2 199.9 867.2 213.7C874.6 230.7 874 246.7 870.3 260.1C915.2 215.6 930 157.8 947.7 80.8C949.7 141.2 918.6 211.8 910.6 222.2C927.4 218 938.7 209.5 953 198.7V198.6C939.5 218.8 934.5 225.5 902.8 235.4C897 245.9 876.9 270.3 859.2 285.1C857.8 287.4 856.4 289.4 855.1 291.1C854.9 291.5 854.6 291.9 854.3 292.2C854.9 292.5 855.6 292.9 856.3 293.2C859.2 294.8 862.7 296.9 866.3 299.6H938.1C941.8 299.6 945.1 300 948.5 300.8C960.8 282.5 970.5 265.3 977.5 241.6C987.4 208 990.6 166.9 989 147.1C988.2 136.7 987 119.4 984.7 101.7C982.4 83.8 979.1 66.3 974.4 55.6C970.1 45.8 962.1 40.8 954.3 40.6Z" fill="url(#paint11_linear_63_509)"/>
<path d="M878.2 310.4C882.8 315 884.4 317.1 886.7 321.2C889.3 325.8 890.9 330.8 893 337.8C895.5 345.9 896.2 353.5 895.6 361.4L897.1 361.7C912.5 365.6 923.8 379.7 923.8 396.4V903.8C923.8 923.5 908 939.5 888.5 939.5H105.3C85.8 939.5 70 923.5 70 903.8V396.4C70 394.8 70.1 393.2 70.3 391.6C70.8 387.7 72 384 73.7 380.5C73.7 380.6 73.8 380.6 73.8 380.7C59.2 366.3 53.1 345.2 56.7 320.9C57.1 318.4 57.5 316 58 313.7L55.6 310.4C36.3 310.6 20.8 326.5 20.8 346.1V953.5C20.8 972.7 35.6 988.3 54.2 989.2L56.1 989.3H938.1C957.6 989.3 973.4 973.3 973.4 953.5V346.1C973.4 326.4 957.6 310.4 938.1 310.4H878.2Z" fill="url(#paint12_linear_63_509)"/>
<path d="M411.6 516.1C404 511.9 394.5 515.8 391.9 523C391.4 524.4 391.1 525.9 391.1 527.7V772.5C391.1 782.6 402.3 789.3 411.6 784.1L631.1 661.7C640.3 656.6 640.3 643.6 631.1 638.5L411.6 516.1Z" fill="url(#paint13_linear_63_509)"/>
<path d="M946.8 110.9C950.6 108 954.5 107.2 957.9 109C961.2 110.7 963.6 114.5 965.4 119.4C969.1 129.3 970.8 145.3 970.2 164.6C969.2 202.9 959.6 254.9 939.1 299.6C938.7 299.6 938.4 299.6 938.1 299.6H866.3C862.7 296.9 859.2 294.8 856.3 293.2C855.6 292.9 854.9 292.5 854.3 292.2C854.6 291.9 854.8 291.5 855.1 291.1C856.4 289.4 857.8 287.4 859.2 285.1C876.9 270.3 897 245.9 902.8 235.4C934.5 225.5 939.5 218.8 953 198.6C953 198.6 953 198.6 953 198.7C938.7 209.5 927.4 218 910.6 222.2C917.2 213.7 939.1 165.1 945.8 114.7C945.9 113.9 946 113 946.2 112.1L946.3 111.4L946.8 110.9Z" fill="url(#paint14_linear_63_509)"/>
<path d="M61.5 85.7C65.6 135.6 82.7 185.6 89.4 194.4C75.1 192.7 67 188.3 48.6 176.2C65.1 198.4 71.4 199.6 95.9 206C96.8 207.6 98.3 209.8 100.1 212.4L102 215C104 224.6 108.2 234 114.4 243.2C104.9 247.7 93.6 253.3 83.6 262.8C75.9 270.2 69.2 279.4 64.1 292.3L62.8 289C44.5 242.8 33.6 194.7 32.2 156.9C31.5 138 33.2 121.6 37.6 109.2C42 96.9 49.3 88.4 60 86L61.5 85.7Z" fill="url(#paint15_linear_63_509)"/>
<path d="M941.6 106.8C926.1 171 910 220.7 870.3 260.1C874 246.7 874.6 230.7 867.2 213.7C861.2 200 853.2 189.8 845.1 182.3C891.8 163.6 914.5 140.2 941.6 106.8Z" fill="url(#paint16_linear_63_509)"/>
<path d="M64.9 75.3C90.5 104.8 102.5 120 133.2 142.3C133.4 142.6 133.6 142.8 133.9 143.1C114.7 158.3 104.3 174.7 101.4 193.2C101.4 193.5 101.3 193.8 101.3 194.1C91.4 176.5 84.8 156.9 78.7 133.6C74.8 118.6 70.7 100.2 64.9 75.3Z" fill="url(#paint17_linear_63_509)"/>
<path d="M769.5 172.6C781.7 171.3 796 170.6 810 173.8C810.3 173.8 810.6 173.9 810.8 174C814.4 175.2 819.3 177.2 824.8 180.4C835.7 186.9 848.8 198.2 857.5 218.1C865.8 237.2 862.1 255.2 856.1 268.6C853 275.4 849.5 280.9 846.6 284.7C845.2 286.6 844 288.1 843.2 289.1C842.8 289.6 842.4 290 842.2 290.2L836 296.6L844.1 299.4C844.1 299.4 844.3 299.4 844.4 299.5C844.8 299.6 845.3 299.8 845.9 300.1C847.2 300.6 849.1 301.5 851.3 302.7C855.7 305.1 861.5 308.8 867 314.2C872.8 320 875.6 323.2 877.5 326.5C879.5 329.9 880.7 333.7 882.9 341C883.5 342.9 883.9 344.8 884.3 346.7C874.8 361.3 861.9 371.2 848.3 374.6C853.5 343.8 851.1 318.2 810 313C834.3 221.1 808.3 192.4 769.5 172.6Z" fill="url(#paint18_linear_63_509)" fill-opacity=".7"/>
<path d="M142.4 246.5C110.7 258.9 85.4 306.3 92.4 345.7C81.6 341.2 72.5 334.2 66.8 325.1C66.9 324.2 67 323.4 67.2 322.5C71.2 295.9 80.4 280.6 90.8 270.6C99.9 262 110 257.1 119.8 252.5C129 248.8 134.5 247.2 142.4 246.5Z" fill="url(#paint19_linear_63_509)" fill-opacity=".7"/>
<path d="M186.5 130.8C200.3 129.2 215.3 131 232.9 135.3C237.7 136.8 244.1 140 254.6 148.1C171.5 136.3 115.9 185.4 149.5 241C142.2 238.4 134.8 238.2 125.5 240.4C125.3 240.2 125.2 240 125 239.9C113.8 224.5 109.6 209.2 111.9 194.8C114.3 179.7 123.9 164.4 142.1 150.1C157.1 138.4 171.2 132.5 186.5 130.8Z" fill="url(#paint20_linear_63_509)" fill-opacity=".7"/>
<path d="M299.5 188.4C318.6 176.1 343.3 186.2 343.3 186.2C313.5 193 296.6 203.4 294.8 228.2C288.7 231.6 275.9 231.6 273 225C273.1 224.9 280.3 200.7 299.5 188.4Z" fill="url(#paint21_linear_63_509)" fill-opacity=".7"/>
<path d="M506.7 176.3C506.7 176.3 542.7 159.2 566.1 167.9C585.8 175.2 602.1 218.1 602.2 218.4C593.2 225.6 576.5 221.7 571.2 214.5C566.5 176.3 548.6 174.3 506.7 176.3Z" fill="url(#paint22_linear_63_509)" fill-opacity=".7"/>
<path d="M427.5 149.5C452.3 144.5 471.9 159.4 471.9 159.4C476.5 161.5 476.1 173.5 470.5 177.2C444.9 155.9 415.1 166.4 396.5 191C390 189.9 383.4 184 386.8 176.3C386.8 176.3 408 153.3 427.5 149.5Z" fill="url(#paint23_linear_63_509)" fill-opacity=".7"/>
<path d="M581.3 39.2C611 37.3 625.7 53.6 635.2 62.5C637.1 64.2 639.3 67.1 641.8 71C644.2 74.7 646.7 79 648.8 83.1C651 87.1 652.9 90.9 654.2 93.7C654.9 95.1 655.4 96.2 655.8 97C656 97.4 656.1 97.7 656.2 97.9L659.3 104.7L664.6 100.1C678.5 87.9 690.1 81.2 703.2 79.2C716.5 77.2 732.2 79.8 754.6 88.4C775.2 96.2 786.9 115.3 793.5 133.6C796.7 142.6 798.6 151.2 799.7 157.5C799.9 158.8 800.1 160.1 800.3 161.3C789.3 161.1 779.3 165.8 768.2 171.4C765 103 707.2 80.8 655.6 116C635.6 51.9 566.8 51.3 536.9 81.5C536.6 77.1 536 73.2 535.2 69.7L535.7 68.7C535.7 68.7 535.8 68.7 535.8 68.6C535.8 68.6 535.8 68.5 535.9 68.5C536 68.3 536.2 68 536.4 67.6C536.9 66.9 537.6 65.8 538.6 64.5C540.6 61.8 543.6 58.2 547.5 54.6C555.4 47.3 566.8 40.1 581.3 39.2Z" fill="url(#paint24_linear_63_509)" fill-opacity=".7"/>
<path d="M954.3 40.6C962.1 40.8 970.1 45.8 974.4 55.6C979.1 66.3 982.4 83.8 984.7 101.7C987 119.4 988.2 136.7 989 147.1C989.4 151.7 989.5 157.5 989.3 164.1C980.5 127.9 966.5 92.7 947.7 83.1C947.7 82.4 947.7 81.6 947.7 80.8C947.5 81.5 947.3 82.2 947.2 82.9C937 78 925.5 80.6 912.7 94.5C921.4 78.3 927.9 64.3 932.2 55.9C937.9 44.7 946.6 40.3 954.3 40.6Z" fill="url(#paint25_linear_63_509)" fill-opacity=".7"/>
<path d="M281.3 60.1C316.4 51.1 348.4 60.8 372.7 74.1C380.9 78.8 387.8 84.9 393.8 91C362.7 76 253 45.2 256.5 145.7C253.3 139.7 250 135.6 246.3 132.4L245.3 129.5C245.2 129.1 245 128.5 244.8 127.7C244.4 126.1 243.8 123.8 243.4 121C242.4 115.4 241.7 107.8 242.8 99.9C243.9 92 246.6 83.9 252.4 76.9C258.1 69.9 267.1 63.7 281.3 60.1Z" fill="url(#paint26_linear_63_509)" fill-opacity=".7"/>
<path d="M411.1 18.6C418.5 15.6 428 13 440 13.6C452.1 14.2 467.2 18.2 485.8 28.7C503.6 38.8 515.5 52.1 523.1 63.2C526.5 68.3 529.4 73.3 532.1 79.2C490.5 36.2 409.7 4.8 398.4 90.2C395.4 82.5 390.9 76.1 383.7 70.1C383.7 70 383.7 70 383.7 70C383.7 69.8 383.7 69.5 383.7 69.2C383.6 68.1 383.6 66.4 383.8 64.4C384 60.4 384.6 54.9 386.1 49C389.3 37.2 396.2 24.6 411.1 18.6Z" fill="url(#paint27_linear_63_509)" fill-opacity=".7"/>
<path d="M66.1 10.9C68.2 10.5 69.6 10.8 71 12.2C72.8 13.9 74.8 17.4 76.7 23.9C84.3 51 82.6 48.3 88.3 63.5C90.5 69.2 92.5 74.4 94.6 79.3C67.4 26.8 54.6 28.2 20.2 66.4C20.9 64.5 21.7 62.4 22.6 60.4C27.2 49.4 33.9 37.1 43.1 28C48 23.2 52.4 19.1 56.5 16.1C60.5 13 63.7 11.4 66.1 10.9Z" fill="url(#paint28_linear_63_509)" fill-opacity=".7"/>
<path d="M291.9 179.6C319.3 165.2 343.1 186 343.3 186.2C343 186.1 318.5 176.2 299.5 188.4C280.3 200.7 273.1 225 273.1 225C273.1 225 270.7 190.8 291.9 179.6Z" fill="black" fill-opacity=".5"/>
<path d="M506.7 176.3C506.8 176.2 532.6 141.1 569.8 155.1C606.7 168.9 602.2 218.2 602.2 218.4C602.2 218.4 585.8 175.2 566.1 167.9C542.7 159.2 506.8 176.3 506.7 176.3Z" fill="black" fill-opacity=".5"/>
<path d="M423.5 135.9C458.3 129.4 471.8 159.2 471.9 159.4C471.8 159.3 452.2 144.5 427.5 149.5C408 153.3 386.8 176.3 386.8 176.3C386.8 176.3 390.1 142.2 423.5 135.9Z" fill="black" fill-opacity=".5"/>
<path d="M58 313.7C57.5 316 57.1 318.4 56.7 320.9C53.1 345.2 59.2 366.3 73.8 380.7C73.8 380.6 73.7 380.6 73.7 380.5C72 384 70.8 387.7 70.3 391.6C70.1 393.2 70 394.8 70 396.4V903.8C70 923.5 85.8 939.5 105.3 939.5H285.2C351.7 964.8 429.4 979.7 500.6 989.3H56L54.2 989.2C35.6 988.3 20.8 972.7 20.8 953.5V346.1C20.8 326.5 36.3 310.6 55.6 310.4L58 313.7Z" fill="black" fill-opacity=".3"/>
<path d="M84.2 388.8C105.1 401.9 135.9 404.4 173.2 393.2C173.7 393.9 174.3 394.7 174.9 395.7C177.5 399.3 181.4 404.1 186.5 408.8C196.6 418.3 211.9 428.2 231.8 427.6C250.7 427.2 263.1 422.7 270.9 418C271.8 417.5 272.7 416.9 273.5 416.4C275.1 424.8 278.7 434.4 284 443C289.1 451.2 294.3 457.2 300.6 462.1C306.8 467 313.8 470.6 322.2 474.4C332.1 478.8 340.9 481.7 350.1 482.7C359.2 483.8 368.5 482.9 379.1 480.3C390.6 477.6 401.8 469.7 410.9 461.8C419.1 454.7 426 447.2 430.2 442.3C430.6 442.8 431 443.5 431.5 444.1C434.5 448.3 438.4 453.7 441.7 457.8C449.4 467.3 454 475.1 465.6 482.9C478.4 491.6 487.6 494.3 502.4 496.3C517.7 498.5 527.6 498.2 542.6 493.2C551.6 490.3 558.8 486.8 565.2 482.1C571.7 477.5 577.2 471.8 583.2 464.6C587.9 459 592.2 451 595.3 444.8C595.7 444.1 596 443.5 596.3 442.8C596.5 443.1 596.7 443.3 596.9 443.6C601.4 449.1 608.7 455.6 620.1 459.4C640.9 466.5 666.5 472.7 693.8 455.6C707 447.3 715.8 437.8 721.2 430.3C723.6 427 725.4 424 726.6 421.8C728.4 422.4 730.7 423.1 733.3 423.8C740.2 425.6 749.7 427.1 760.1 426.1C775.8 424.6 786.6 421.7 793.7 416.5C798.7 420.5 807 423.9 820.1 424.3C836.7 424.8 847.3 425.9 862.4 417.4C867 414.8 871.2 412.4 874.9 409.5C873.3 412.2 871.7 414.4 870.1 416C861.8 424 850.3 437.7 796.4 433.3C772 464.4 732.8 446.8 730.5 438.7C698 508.3 617.1 488.5 602.8 466.5C570 539.4 463.8 535 429.4 471.1C368.5 524.9 295 511 264 438C207.6 462.1 174.8 426.6 167.6 408.3C156.5 424.2 128.3 423.7 113.4 417.1L119.8 756.7C119.8 839.1 178.4 892.9 259.1 928.8H105.3C91.6 928.8 80.6 917.6 80.6 903.8V396.4C80.6 395.3 80.7 394.1 80.8 393.1C81.1 391.1 81.5 389.3 82.2 387.5C82.8 388 83.5 388.4 84.2 388.8Z" fill="black" fill-opacity=".3"/>
<path d="M721.3 370.9C724 386.2 724 398.5 720.7 408.9L719.1 413.1C719.1 413.1 718.9 413.5 718.8 413.7C718.6 414.2 718.2 415 717.7 415.9C716.7 417.9 715 420.7 712.7 423.9C707.9 430.5 700.1 439 688.2 446.5C665.2 460.9 643.7 456.2 623.4 449.3C614.2 446.1 608.5 441 605.1 436.8C603.4 434.7 602.3 432.8 601.6 431.4C601.2 430.8 601 430.2 600.8 429.9L596.1 416.2L590.5 430C590.2 430.6 589.9 431.4 589.5 432.3C588.6 434.3 587.4 437 585.9 440C582.9 446.1 578.9 453.1 575.1 457.7C569.4 464.5 564.5 469.5 559.1 473.4C553.7 477.3 547.6 480.3 539.3 483C526.1 487.4 517.9 487.7 503.9 485.7C490.2 483.8 482.6 481.5 471.4 474C461.6 467.4 458.4 461.5 449.8 450.9C449.6 450.6 449.3 450.3 449 449.9C447.9 448.5 446.6 446.8 445.4 445.2C437.6 432.9 434.7 412.3 434.8 390.2C467.6 447.3 567.2 436.8 597.4 392.5C628.5 433.3 700.2 416.8 721.3 370.9Z" fill="url(#paint29_linear_63_509)" fill-opacity=".3"/>
<path d="M290.4 349.1C299.8 427.9 392.9 431.5 427.5 391.2C426.3 404.2 427.1 415.1 428 428.1L425.7 431C425.2 431.7 424.5 432.5 423.6 433.6C419.8 438.2 412.6 446.2 404 453.7C395.3 461.2 385.6 467.7 376.7 469.9C366.9 472.3 358.9 472.9 351.3 472.1C343.5 471.2 335.8 468.7 326.5 464.6C318.4 461 312.3 457.7 307.1 453.6C301.9 449.6 297.5 444.6 293 437.3C290.2 432.8 288 428 286.4 423.4C281.2 399 283.1 372.4 290.4 349.1Z" fill="url(#paint30_linear_63_509)" fill-opacity=".3"/>
<path d="M179.1 340.4C190.4 365.5 240.5 382.1 285.5 347C276.7 364.4 272.9 383.6 272.4 403.3C272.2 403.5 272 403.7 271.8 404C270.6 405.2 268.6 406.9 265.5 408.8C259.4 412.4 248.8 416.5 231.6 416.9C215.4 417.3 202.6 409.4 193.7 401C191.8 399.2 190.1 397.4 188.6 395.7C188 395 187.2 394.2 186.7 393.5C175.7 379.7 175.2 361.2 179.1 340.4Z" fill="url(#paint31_linear_63_509)" fill-opacity=".3"/>
<path d="M802.7 364.7C802.9 379.2 801.3 391 794.2 400.7L790.3 405.2C789.2 406.2 788.1 407.3 786.8 408.3C782.2 411.4 774 414 759.1 415.4C750.3 416.3 742 415 735.9 413.4C733.5 412.8 731.5 412.2 730 411.6C733.3 398.1 731.9 383.8 728.3 371.7C758.8 390.7 791.6 388.5 802.7 364.7Z" fill="url(#paint32_linear_63_509)" fill-opacity=".3"/>
<path d="M884.3 346.7C884.8 349.4 885.1 352 885.2 354.7C885.1 357.5 885 360.2 884.9 362.8C884.2 368.7 882.7 375 880.4 382.1C877.8 389.9 875 394.5 871.7 398C868.2 401.6 863.8 404.3 857.3 408C845.1 414.9 837.5 414.1 820.4 413.6C809.7 413.2 803.8 410.7 800.9 408.6C809 397 811.5 380.3 806.8 361.8C831.2 386.7 864.9 376.5 884.3 346.7Z" fill="url(#paint33_linear_63_509)" fill-opacity=".3"/>
<path d="M66.8 325C85.2 355 140.9 361.6 172.2 334.3C166.6 351.2 165.9 370.3 169.2 383.2C134.1 393.5 107 390.5 89.7 379.7C72.6 369 63.9 349.8 66.8 325Z" fill="url(#paint34_linear_63_509)" fill-opacity=".3"/>
<path d="M932.3 222.6C934.8 222.7 937.3 223 939.6 223.6C943.7 224.8 946.9 226.7 949.4 229.3C951.8 231.9 953.3 235 954.1 238.4C955.7 245 954.8 252.8 953.1 260.5C952.3 264.3 951.2 268.3 950.1 272.2C946.8 281.6 943.2 290.7 939.1 299.6C938.8 299.6 938.4 299.6 938.1 299.6H866.3C862.7 296.9 859.2 294.8 856.3 293.2C855.6 292.9 854.9 292.5 854.3 292.2C854.6 291.9 854.8 291.5 855.1 291.1C856.4 289.4 857.8 287.4 859.2 285.1C876.9 270.3 897 245.9 902.8 235.4C916.9 231 925.7 227.2 932.3 222.6Z" fill="url(#paint35_linear_63_509)" fill-opacity=".3"/>
<path d="M63.4 192.9C71.7 199.9 79.9 201.8 95.9 206C96.8 207.6 98.3 209.8 100.1 212.4L102 215C104 224.6 108.1 234 114.4 243.2C104.9 247.7 93.6 253.3 83.6 262.8C75.9 270.2 69.2 279.4 64.1 292.3L62.8 289C56.9 274.1 51.8 259 47.5 244.2C45.7 236.7 44.3 229.4 43.8 223.5C42.9 214.7 43.6 206.7 47.5 201C50.9 195.9 56.3 193.3 63.4 192.9Z" fill="url(#paint36_linear_63_509)" fill-opacity=".3"/>
<path d="M938.1 310.4C957.6 310.4 973.4 326.4 973.4 346.1V953.5C973.4 971.4 960.5 986.1 943.7 988.8C957.2 982.1 960.9 969.8 960.9 948.3V365.2C960.9 330.8 954.6 316.4 936.4 310.4H938.1Z" fill="#FFFBFB" fill-opacity=".2"/>
<path d="M894.1 372C905 374.6 913.2 384.5 913.2 396.4V903.8C913.2 917.6 902.2 928.8 888.5 928.8H788.4C888.3 911.8 891 861.1 893.4 841.5C896.2 817.9 901.3 679.1 901.3 668.1V633.2C901.3 622.2 896.2 483.5 893.4 459.8C892.1 449.1 890.7 429.2 873.5 410.5C875.6 409 877.5 407.3 879.3 405.5C884 400.5 887.5 394.3 890.4 385.4C891.9 380.7 893.2 376.4 894.1 372Z" fill="#FFFBFB" fill-opacity=".2"/>
<path d="M555 619.5C553 623 524.7 611.9 493.1 594C461.6 576.2 437.6 558.8 439.6 555.3C441.6 551.8 468.8 563.5 500.3 581.3C531.9 599.2 557 616 555 619.5Z" fill="white" fill-opacity=".7"/>
<path d="M595.2 637.4C593.9 640 585.1 638.9 576.1 634.5C567 630.1 560.7 624.5 562 621.9C563.3 619.2 569.7 621 578.7 625.4C582.2 628.7 596.5 634.7 595.2 637.4Z" fill="white" fill-opacity=".7"/>
</g>
<defs>
<linearGradient id="paint0_linear_63_509" x1="257" y1="571.5" x2="257" y2="928.8" gradientUnits="userSpaceOnUse">
<stop stop-color="#AFCBFF"/>
<stop offset="1" stop-color="#D2E2FF"/>
</linearGradient>
<linearGradient id="paint1_linear_63_509" x1="724" y1="442.8" x2="724" y2="878.8" gradientUnits="userSpaceOnUse">
<stop stop-color="#AFCBFF"/>
<stop offset="1" stop-color="#D2E2FF"/>
</linearGradient>
<linearGradient id="paint2_linear_63_509" x1="433.5" y1="387.5" x2="433.5" y2="928.8" gradientUnits="userSpaceOnUse">
<stop stop-color="#AFCBFF"/>
<stop offset="1" stop-color="#D2E2FF"/>
</linearGradient>
<linearGradient id="paint3_linear_63_509" x1="433.5" y1="387.5" x2="433.5" y2="928.8" gradientUnits="userSpaceOnUse">
<stop stop-color="#AFCBFF"/>
<stop offset="1" stop-color="#D2E2FF"/>
</linearGradient>
<linearGradient id="paint4_linear_63_509" x1="865.1" y1="372" x2="865.1" y2="521.4" gradientUnits="userSpaceOnUse">
<stop stop-color="#AFCBFF"/>
<stop offset="1" stop-color="#D2E2FF"/>
</linearGradient>
<linearGradient id="paint5_linear_63_509" x1="168.8" y1="750.1" x2="168.8" y2="928.8" gradientUnits="userSpaceOnUse">
<stop stop-color="#87ADFF"/>
<stop offset="1" stop-color="#7DA6FF"/>
</linearGradient>
<linearGradient id="paint6_linear_63_509" x1="345.2" y1="393" x2="345.2" y2="928.8" gradientUnits="userSpaceOnUse">
<stop stop-color="#87ADFF"/>
<stop offset="1" stop-color="#7DA6FF"/>
</linearGradient>
<linearGradient id="paint7_linear_63_509" x1="629.1" y1="442.3" x2="629.1" y2="928.8" gradientUnits="userSpaceOnUse">
<stop stop-color="#87ADFF"/>
<stop offset="1" stop-color="#7DA6FF"/>
</linearGradient>
<linearGradient id="paint8_linear_63_509" x1="796" y1="416.5" x2="796" y2="700.1" gradientUnits="userSpaceOnUse">
<stop stop-color="#87ADFF"/>
<stop offset="1" stop-color="#7DA6FF"/>
</linearGradient>
<linearGradient id="paint9_linear_63_509" x1="475.7" y1="13.5" x2="475.7" y2="486.9" gradientUnits="userSpaceOnUse">
<stop stop-color="#FFE8A8"/>
<stop offset="1" stop-color="#FFD35B"/>
</linearGradient>
<linearGradient id="paint10_linear_63_509" x1="72.3" y1="10.7" x2="72.3" y2="299.6" gradientUnits="userSpaceOnUse">
<stop stop-color="#FFC5A1"/>
<stop offset="1" stop-color="#FF8D46"/>
</linearGradient>
<linearGradient id="paint11_linear_63_509" x1="917.2" y1="40.6" x2="917.2" y2="300.8" gradientUnits="userSpaceOnUse">
<stop stop-color="#FFC5A1"/>
<stop offset="1" stop-color="#FF8D46"/>
</linearGradient>
<linearGradient id="paint12_linear_63_509" x1="497.1" y1="310.4" x2="497.1" y2="989.3" gradientUnits="userSpaceOnUse">
<stop stop-color="#2D2D2D"/>
<stop offset="1" stop-color="#202020"/>
</linearGradient>
<linearGradient id="paint13_linear_63_509" x1="514.5" y1="514.4" x2="514.5" y2="785.9" gradientUnits="userSpaceOnUse">
<stop stop-color="#0036FF"/>
<stop offset="1" stop-color="#001E8E"/>
</linearGradient>
<linearGradient id="paint14_linear_63_509" x1="912.3" y1="108" x2="912.3" y2="299.6" gradientUnits="userSpaceOnUse">
<stop stop-color="#EE8B87"/>
<stop offset="1" stop-color="#F87878"/>
</linearGradient>
<linearGradient id="paint15_linear_63_509" x1="73.2" y1="85.7" x2="73.2" y2="292.3" gradientUnits="userSpaceOnUse">
<stop stop-color="#EE8B87"/>
<stop offset="1" stop-color="#F87878"/>
</linearGradient>
<linearGradient id="paint16_linear_63_509" x1="893.4" y1="106.8" x2="893.4" y2="260.1" gradientUnits="userSpaceOnUse">
<stop stop-color="#EA8B50"/>
<stop offset="1" stop-color="#C77C4D"/>
</linearGradient>
<linearGradient id="paint17_linear_63_509" x1="99.4" y1="75.3" x2="99.4" y2="194.1" gradientUnits="userSpaceOnUse">
<stop stop-color="#EA8B50"/>
<stop offset="1" stop-color="#C77C4D"/>
</linearGradient>
<linearGradient id="paint18_linear_63_509" x1="504.8" y1="10.7" x2="504.8" y2="374.6" gradientUnits="userSpaceOnUse">
<stop stop-color="white"/>
<stop offset="1" stop-color="white" stop-opacity=".2"/>
</linearGradient>
<linearGradient id="paint19_linear_63_509" x1="504.8" y1="10.7" x2="504.8" y2="374.6" gradientUnits="userSpaceOnUse">
<stop stop-color="white"/>
<stop offset="1" stop-color="white" stop-opacity=".2"/>
</linearGradient>
<linearGradient id="paint20_linear_63_509" x1="504.8" y1="10.7" x2="504.8" y2="374.6" gradientUnits="userSpaceOnUse">
<stop stop-color="white"/>
<stop offset="1" stop-color="white" stop-opacity=".2"/>
</linearGradient>
<linearGradient id="paint21_linear_63_509" x1="504.8" y1="10.7" x2="504.8" y2="374.6" gradientUnits="userSpaceOnUse">
<stop stop-color="white"/>
<stop offset="1" stop-color="white" stop-opacity=".2"/>
</linearGradient>
<linearGradient id="paint22_linear_63_509" x1="504.8" y1="10.7" x2="504.8" y2="374.6" gradientUnits="userSpaceOnUse">
<stop stop-color="white"/>
<stop offset="1" stop-color="white" stop-opacity=".2"/>
</linearGradient>
<linearGradient id="paint23_linear_63_509" x1="504.8" y1="10.7" x2="504.8" y2="374.6" gradientUnits="userSpaceOnUse">
<stop stop-color="white"/>
<stop offset="1" stop-color="white" stop-opacity=".2"/>
</linearGradient>
<linearGradient id="paint24_linear_63_509" x1="504.8" y1="10.7" x2="504.8" y2="374.6" gradientUnits="userSpaceOnUse">
<stop stop-color="white"/>
<stop offset="1" stop-color="white" stop-opacity=".2"/>
</linearGradient>
<linearGradient id="paint25_linear_63_509" x1="504.8" y1="10.7" x2="504.8" y2="374.6" gradientUnits="userSpaceOnUse">
<stop stop-color="white"/>
<stop offset="1" stop-color="white" stop-opacity=".2"/>
</linearGradient>
<linearGradient id="paint26_linear_63_509" x1="504.8" y1="10.7" x2="504.8" y2="374.6" gradientUnits="userSpaceOnUse">
<stop stop-color="white"/>
<stop offset="1" stop-color="white" stop-opacity=".2"/>
</linearGradient>
<linearGradient id="paint27_linear_63_509" x1="504.8" y1="10.7" x2="504.8" y2="374.6" gradientUnits="userSpaceOnUse">
<stop stop-color="white"/>
<stop offset="1" stop-color="white" stop-opacity=".2"/>
</linearGradient>
<linearGradient id="paint28_linear_63_509" x1="504.8" y1="10.7" x2="504.8" y2="374.6" gradientUnits="userSpaceOnUse">
<stop stop-color="white"/>
<stop offset="1" stop-color="white" stop-opacity=".2"/>
</linearGradient>
<linearGradient id="paint29_linear_63_509" x1="579" y1="370.9" x2="579" y2="486.9" gradientUnits="userSpaceOnUse">
<stop stop-opacity=".4"/>
<stop offset="1"/>
</linearGradient>
<linearGradient id="paint30_linear_63_509" x1="355.7" y1="349.1" x2="355.7" y2="472.4" gradientUnits="userSpaceOnUse">
<stop stop-opacity=".4"/>
<stop offset="1"/>
</linearGradient>
<linearGradient id="paint31_linear_63_509" x1="231.2" y1="340.4" x2="231.2" y2="416.9" gradientUnits="userSpaceOnUse">
<stop stop-opacity=".4"/>
<stop offset="1"/>
</linearGradient>
<linearGradient id="paint32_linear_63_509" x1="765.5" y1="364.7" x2="765.5" y2="415.7" gradientUnits="userSpaceOnUse">
<stop stop-opacity=".4"/>
<stop offset="1"/>
</linearGradient>
<linearGradient id="paint33_linear_63_509" x1="843" y1="346.7" x2="843" y2="413.9" gradientUnits="userSpaceOnUse">
<stop stop-opacity=".4"/>
<stop offset="1"/>
</linearGradient>
<linearGradient id="paint34_linear_63_509" x1="119.2" y1="325" x2="119.2" y2="389.5" gradientUnits="userSpaceOnUse">
<stop stop-opacity=".4"/>
<stop offset="1"/>
</linearGradient>
<linearGradient id="paint35_linear_63_509" x1="904.6" y1="222.6" x2="904.6" y2="299.6" gradientUnits="userSpaceOnUse">
<stop stop-opacity=".2"/>
<stop offset="1"/>
</linearGradient>
<linearGradient id="paint36_linear_63_509" x1="78.9" y1="192.9" x2="78.9" y2="292.3" gradientUnits="userSpaceOnUse">
<stop stop-opacity=".2"/>
<stop offset="1"/>
</linearGradient>
<clipPath id="clip0_63_509">
<rect width="1000" height="1000" fill="white"/>
</clipPath>
</defs>
</svg>
