<svg viewBox="0 0 100 100" xmlns="http://www.w3.org/2000/svg" fill="#000000">
<path fill-rule="evenodd" clip-rule="evenodd" d="M95 50C97.76 50 100 52.24 100 55V95C100 97.76 97.76 100 95 100H55C52.24 100 50 97.76 50 95V55C50 52.24 52.24 50 55 50H95ZM62 60C60.9 60 60 60.9 60 62V88C60 89.1 60.9 90 62 90H88C89.1 90 90 89.1 90 88V62C90 60.9 89.1 60 88 60H62Z"/>
<path d="M90 0C92.76 0 95 2.24 95 5V37C95 39.76 92.76 42 90 42C87.24 42 85 39.76 85 37V12C85 10.9 84.1 10 83 10H12C10.9 10 10 10.9 10 12V83C10 84.1 10.9 85 12 85H37C39.76 85 42 87.24 42 90C42 92.76 39.76 95 37 95H5C2.24 95 0 92.76 0 90V5C0 2.24 2.24 0 5 0H90Z"/>
</svg>