<svg viewBox="0 0 100 100" xmlns="http://www.w3.org/2000/svg" fill="#000000">
<path d="M35 100C32.24 100 30 97.76 30 95V72C30 70.9 29.1 70 28 70H5C2.24 70 0 67.76 0 65C0 62.24 2.24 60 5 60H35C37.76 60 40 62.24 40 65V95C40 97.76 37.76 100 35 100ZM65 100C62.24 100 60 97.76 60 95V65C60 62.24 62.24 60 65 60H95C97.76 60 100 62.24 100 65C100 67.76 97.76 70 95 70H72C70.9 70 70 70.9 70 72V95C70 97.76 67.76 100 65 100ZM5 40C2.24 40 0 37.76 0 35C0 32.24 2.24 30 5 30H28C29.1 30 30 29.1 30 28V5C30 2.24 32.24 0 35 0C37.76 0 40 2.24 40 5V35C40 37.76 37.76 40 35 40H5ZM65 40C62.24 40 60 37.76 60 35V5C60 2.24 62.24 0 65 0C67.76 0 70 2.24 70 5V28C70 29.1 70.9 30 72 30H95C97.76 30 100 32.24 100 35C100 37.76 97.76 40 95 40H65Z"/>
</svg>