<svg viewBox="0 0 120 100" xmlns="http://www.w3.org/2000/svg">
<path d="M60 5C90.38 5 115 29.84 115 60.48C115 73.53 110.53 85.53 103.06 95H16.94C9.47 85.53 5 73.53 5 60.48C5 29.84 29.62 5 60 5Z" fill="none" stroke="#000000" stroke-width="10"/>
<ellipse cx="60" cy="60.5" rx="12" ry="12.5" fill="#000000"/>
<path d="M82.87 28.47C83.73 26.57 83.01 24.33 81.21 23.28C79.42 22.24 77.12 22.74 75.92 24.43L51.82 58.34C50.11 60.74 50.84 64.11 53.4 65.59L58.67 68.65C61.22 70.13 64.49 69.08 65.7 66.39Z" fill="#000000"/>
<rect x="55" y="4" width="10" height="18" rx="5" fill="#000000"/>

<rect x="109.84" y="84.2" width="10" height="18.33" rx="5" transform="rotate(120 109.84 84.2)" fill="#000000"/>
<rect x="14.98" y="92.87" width="10" height="18.33" rx="5" transform="rotate(-120 14.98 92.87)" fill="#000000"/>
<rect x="9" y="36.67" width="10" height="18.33" rx="5" transform="rotate(-60 9 36.67)" fill="#000000"/>
<rect x="105.86" y="28" width="10" height="18.33" rx="5" transform="rotate(60 105.86 28)" fill="#000000"/>

</svg>