<svg viewBox="0 0 100 100" xmlns="http://www.w3.org/2000/svg" fill="#000000">
<path fill-rule="evenodd" clip-rule="evenodd" d="M52 1.5C55.28 -1.07 60 -0.61 60 5V95C60 98.5 58.18 99.99 56.01 100H55.95C54.64 99.99 53.22 99.45 52 98.5L21.5 75H5C2.24 75 0 72.76 0 70V30C0 27.31 2.12 25.11 4.79 25H21.5L21.57 24.94L52 1.5ZM25.98 34.17C25.27 34.71 24.45 34.98 23.63 35H10V65H23.63C24.46 65.02 25.29 65.29 25.99 65.83L50 84.33V15.67L25.98 34.17Z"/>
<path d="M76.33 15.61C78.2 13.58 81.36 13.45 83.39 15.33C94.05 25.16 99.62 37.45 99.62 50C99.62 62.55 94.05 74.84 83.39 84.67C81.36 86.55 78.2 86.42 76.33 84.39C74.45 82.36 74.58 79.2 76.61 77.33C85.45 69.16 89.62 59.45 89.62 50C89.62 40.55 85.45 30.84 76.61 22.67C74.58 20.8 74.45 17.64 76.33 15.61Z"/>
<path d="M69.88 31.1C72.03 29.37 75.18 29.72 76.9 31.88C81.41 37.51 84 43.58 84 50C84 56.42 81.41 62.49 76.9 68.12C75.18 70.28 72.03 70.63 69.88 68.9C67.72 67.18 67.37 64.03 69.1 61.88C72.59 57.51 74 53.58 74 50C74 46.42 72.59 42.49 69.1 38.12C67.37 35.97 67.72 32.82 69.88 31.1Z"/>
</svg>