<svg viewBox="0 0 100 100" xmlns="http://www.w3.org/2000/svg" fill="#000000">
<path d="M52 1.5C55.28 -1.07 60 -0.61 60 5V95C60 98.5 58.18 99.99 56.01 100H55.95C54.64 99.99 53.22 99.45 52 98.5L21.5 75H5C2.24 75 0 72.76 0 70V30C0 27.31 2.12 25.11 4.79 25H21.5L21.57 24.94L52 1.5ZM25.98 34.17C25.27 34.71 24.45 34.98 23.63 35H10V65H23.63C24.46 65.02 25.29 65.29 25.99 65.83L50 84.33V15.67L25.98 34.17Z"/>
<path d="M91.46 34.54C93.42 32.58 96.58 32.58 98.53 34.54C100.49 36.49 100.49 39.65 98.53 41.61L90.11 50.03L98.53 58.46C100.49 60.42 100.49 63.58 98.53 65.53C96.58 67.49 93.42 67.49 91.46 65.53L83.03 57.11L74.61 65.53C72.65 67.49 69.49 67.49 67.54 65.53C65.58 63.58 65.58 60.42 67.54 58.46L75.96 50.03L67.54 41.61C65.58 39.65 65.58 36.49 67.54 34.54C69.49 32.58 72.65 32.58 74.61 34.54L83.03 42.96L91.46 34.54Z"/>
</svg>